0
SECTION
2
HEADER
9
$INSUNITS
70
4
9
$ACADVER
1
AC1014
9
$HANDSEED
5
FFFF
0
ENDSEC
0
SECTION
2
TABLES
0
TABLE
2
VPORT
5
8
100
AcDbSymbolTable
0
ENDTAB
0
TABLE
2
LTYPE
5
5
100
AcDbSymbolTable
0
LTYPE
5
14
100
AcDbSymbolTableRecord
100
AcDbLinetypeTableRecord
2
BYBLOCK
70
0
0
LTYPE
5
15
100
AcDbSymbolTableRecord
100
AcDbLinetypeTableRecord
2
BYLAYER
70
0
0
ENDTAB
0
TABLE
2
LAYER
5
2
100
AcDbSymbolTable
70
2
0
LAYER
5
50
100
AcDbSymbolTableRecord
100
AcDbLayerTableRecord
2
0
70
0
6
CONTINUOUS
0
ENDTAB
0
TABLE
2
STYLE
5
3
100
AcDbSymbolTable
70
1
0
STYLE
5
11
100
AcDbSymbolTableRecord
100
AcDbTextStyleTableRecord
2
STANDARD
70
0
0
ENDTAB
0
TABLE
2
VIEW
5
6
100
AcDbSymbolTable
70
0
0
ENDTAB
0
TABLE
2
UCS
5
7
100
AcDbSymbolTable
70
0
0
ENDTAB
0
TABLE
2
APPID
5
9
100
AcDbSymbolTable
70
2
0
APPID
5
12
100
AcDbSymbolTableRecord
100
AcDbRegAppTableRecord
2
ACAD
70
0
0
ENDTAB
0
TABLE
2
DIMSTYLE
5
A
100
AcDbSymbolTable
70
1
0
ENDTAB
0
TABLE
2
BLOCK_RECORD
5
1
100
AcDbSymbolTable
70
1
0
BLOCK_RECORD
5
1F
100
AcDbSymbolTableRecord
100
AcDbBlockTableRecord
2
*MODEL_SPACE
0
BLOCK_RECORD
5
1B
100
AcDbSymbolTableRecord
100
AcDbBlockTableRecord
2
*PAPER_SPACE
0
ENDTAB
0
ENDSEC
0
SECTION
2
BLOCKS
0
BLOCK
5
20
100
AcDbEntity
100
AcDbBlockBegin
2
*MODEL_SPACE
0
ENDBLK
5
21
100
AcDbEntity
100
AcDbBlockEnd
0
BLOCK
5
1C
100
AcDbEntity
100
AcDbBlockBegin
2
*PAPER_SPACE
0
ENDBLK
5
1D
100
AcDbEntity
100
AcDbBlockEnd
0
ENDSEC
0
SECTION
2
ENTITIES
0
LWPOLYLINE
5
100
100
AcDbEntity
8
0
100
AcDbPolyline
90
4
70
1
43
0.0
10
300
20
49.372215274173215
10
-49.999999999999986
20
49.372215274173215
10
-50
20
-245.69819772582676
10
300
20
-245.69819772582676
0
LWPOLYLINE
5
101
100
AcDbEntity
8
0
100
AcDbPolyline
90
4
70
1
43
0.0
10
299.99999999999994
20
85
10
-50.000000000000028
20
85
10
-50
20
156.83805000000001
10
300
20
156.83805000000001
0
LWPOLYLINE
5
102
100
AcDbEntity
8
0
100
AcDbPolyline
90
4
70
1
43
0.0
10
-137.86052311132983
20
-26.985162784189143
10
-137.86052311132983
20
-370.98516278418924
10
-57.860523111329755
20
-370.98516278418919
10
-57.860523111329826
20
-26.985162784189143
0
LWPOLYLINE
5
103
100
AcDbEntity
8
0
100
AcDbPolyline
90
4
70
1
43
0.0
10
296.39287721741454
20
-251.03580127546266
10
-53.607122782585463
20
-251.03580127546266
10
-53.607122782585463
20
-470.42707827546269
10
296.39287721741454
20
-470.42707827546269
0
LWPOLYLINE
5
104
100
AcDbEntity
8
0
100
AcDbPolyline
90
4
70
1
43
0.0
10
257.89287721741448
20
-324.64313723056011
10
-6.7999999999999989
20
-324.64313723056011
10
-6.7999999999999972
20
-433.14313723056011
10
257.89287721741448
20
-433.14313723056011
0
LWPOLYLINE
5
105
100
AcDbEntity
8
0
100
AcDbPolyline
90
4
70
1
43
0.0
10
-127.86052311132983
20
-35.9851627841892
10
-127.86052311132983
20
-360.98516278418924
10
-122.86052311132983
20
-360.98516278418924
10
-122.86052311132983
20
-35.9851627841892
0
LWPOLYLINE
5
106
100
AcDbEntity
8
0
100
AcDbPolyline
90
4
70
1
43
0.0
10
-117.86052311132983
20
-35.9851627841892
10
-117.86052311132983
20
-360.98516278418924
10
-112.86052311132983
20
-360.98516278418924
10
-112.86052311132983
20
-35.9851627841892
0
LWPOLYLINE
5
107
100
AcDbEntity
8
0
100
AcDbPolyline
90
4
70
1
43
0.0
10
-107.86052311132983
20
-35.9851627841892
10
-107.86052311132983
20
-360.98516278418924
10
-102.86052311132983
20
-360.98516278418924
10
-102.86052311132983
20
-35.9851627841892
0
LWPOLYLINE
5
108
100
AcDbEntity
8
0
100
AcDbPolyline
90
4
70
1
43
0.0
10
-97.860523111329826
20
-35.9851627841892
10
-97.860523111329826
20
-360.98516278418924
10
-92.860523111329826
20
-360.98516278418919
10
-92.860523111329826
20
-35.9851627841892
0
LWPOLYLINE
5
109
100
AcDbEntity
8
0
100
AcDbPolyline
90
4
70
1
43
0.0
10
-87.860523111329826
20
-35.9851627841892
10
-87.860523111329826
20
-216.98515587005048
10
-82.860523111329826
20
-216.98515587005048
10
-82.860523111329826
20
-35.9851627841892
0
CIRCLE
5
110
100
AcDbEntity
8
0
100
AcDbCircle
10
-75.937680163570235
20
-296.92284294775953
30
0
40
6.8000000000000007
0
CIRCLE
5
111
100
AcDbEntity
8
0
100
AcDbCircle
10
-75.937680163570235
20
-266.92284294775959
30
0
40
6.8000000000000007
0
CIRCLE
5
112
100
AcDbEntity
8
0
100
AcDbCircle
10
-75.937680163570235
20
-236.92284294775959
30
0
40
6.8000000000000007
0
LWPOLYLINE
5
113
100
AcDbEntity
8
0
100
AcDbPolyline
90
4
70
1
43
0.0
10
-72.860523111329826
20
-216.98515587005048
10
-72.860523111329826
20
-35.9851627841892
10
-77.860523111329826
20
-35.9851627841892
10
-77.860523111329826
20
-216.98515587005048
0
LWPOLYLINE
5
114
100
AcDbEntity
8
0
100
AcDbPolyline
90
4
70
1
43
0.0
10
-299.0998625342142
20
164.19734107531235
10
-219.0998625342142
20
164.19734107531235
10
-219.0998625342142
20
173.19734107531235
10
-299.0998625342142
20
173.19734107531235
0
LWPOLYLINE
5
115
100
AcDbEntity
8
0
100
AcDbPolyline
90
4
70
1
43
0.0
10
-297.20000436604028
20
166.49999956786633
10
-292.70000436604022
20
166.49999956786633
10
-292.70000436604022
20
170.99999956786633
10
-297.20000436604028
20
170.99999956786633
0
LWPOLYLINE
5
116
100
AcDbEntity
8
0
100
AcDbPolyline
90
4
70
1
43
0.0
10
-221.00000436604023
20
166.49999956786633
10
-221.00000436604023
20
170.99999956786633
10
-225.50000436604026
20
170.99999956786633
10
-225.50000436604026
20
166.49999956786633
0
LWPOLYLINE
5
117
100
AcDbEntity
8
0
100
AcDbPolyline
90
4
70
1
43
0.0
10
-292.70000436604022
20
166.49999956786633
10
-292.70000436604022
20
170.99999956786633
10
-297.20000436604028
20
170.99999956786633
10
-297.20000436604028
20
166.49999956786633
0
LWPOLYLINE
5
118
100
AcDbEntity
8
0
100
AcDbPolyline
90
4
70
1
43
0.0
10
-292.70000436604022
20
190.99999956786633
10
-297.20000436604028
20
190.99999956786633
10
-297.20000436604028
20
186.49999956786633
10
-292.70000436604022
20
186.49999956786633
0
LWPOLYLINE
5
119
100
AcDbEntity
8
0
100
AcDbPolyline
90
4
70
1
43
0.0
10
-225.50000436604026
20
190.99999956786633
10
-225.50000436604026
20
186.49999956786633
10
-221.00000436604023
20
186.49999956786633
10
-221.00000436604023
20
190.99999956786633
0
LWPOLYLINE
5
120
100
AcDbEntity
8
0
100
AcDbPolyline
90
4
70
1
43
0.0
10
-297.20000436604028
20
190.99999956786633
10
-297.20000436604028
20
186.49999956786633
10
-292.70000436604022
20
186.49999956786633
10
-292.70000436604022
20
190.99999956786633
0
LWPOLYLINE
5
121
100
AcDbEntity
8
0
100
AcDbPolyline
90
4
70
1
43
0.0
10
-219.0998625342142
20
184.19734107531235
10
-219.0998625342142
20
193.19734107531235
10
-299.0998625342142
20
193.19734107531235
10
-299.0998625342142
20
184.19734107531235
0
LWPOLYLINE
5
122
100
AcDbEntity
8
0
100
AcDbPolyline
90
4
70
1
43
0.0
10
-242.86052311132983
20
-360.98516278418936
10
-237.86052311132983
20
-360.98516278418924
10
-237.86052311132983
20
-35.9851627841892
10
-242.86052311132983
20
-35.9851627841892
0
LWPOLYLINE
5
123
100
AcDbEntity
8
0
100
AcDbPolyline
90
4
70
1
43
0.0
10
-247.86052311132983
20
-35.9851627841892
10
-252.86052311132983
20
-35.9851627841892
10
-252.86052311132983
20
-360.98516278418924
10
-247.86052311132983
20
-360.98516278418924
0
LWPOLYLINE
5
124
100
AcDbEntity
8
0
100
AcDbPolyline
90
4
70
1
43
0.0
10
-272.86052311132983
20
-360.98516278418924
10
-267.86052311132983
20
-360.98516278418924
10
-267.86052311132983
20
-35.9851627841892
10
-272.86052311132983
20
-35.9851627841892
0
LWPOLYLINE
5
125
100
AcDbEntity
8
0
100
AcDbPolyline
90
4
70
1
43
0.0
10
-232.86052311132983
20
-35.9851627841892
10
-232.86052311132983
20
-216.98515587005048
10
-227.86052311132983
20
-216.98515587005048
10
-227.86052311132983
20
-35.9851627841892
0
LWPOLYLINE
5
126
100
AcDbEntity
8
0
100
AcDbPolyline
90
4
70
1
43
0.0
10
-282.86052311132983
20
-26.985162784189143
10
-282.86052311132983
20
-370.98516278418924
10
-202.86052311132977
20
-370.98516278418919
10
-202.86052311132983
20
-26.985162784189143
0
LWPOLYLINE
5
127
100
AcDbEntity
8
0
100
AcDbPolyline
90
4
70
1
43
0.0
10
-257.86052311132983
20
-360.98516278418924
10
-257.86052311132983
20
-35.9851627841892
10
-262.86052311132983
20
-35.9851627841892
10
-262.86052311132983
20
-360.98516278418924
0
LWPOLYLINE
5
128
100
AcDbEntity
8
0
100
AcDbPolyline
90
4
70
1
43
0.0
10
-217.86052311132983
20
-35.9851627841892
10
-222.86052311132983
20
-35.9851627841892
10
-222.86052311132983
20
-216.98515587005048
10
-217.86052311132983
20
-216.98515587005048
0
LWPOLYLINE
5
129
100
AcDbEntity
8
0
100
AcDbPolyline
90
4
70
1
43
0.0
10
-204.75000466406351
20
-29.18320038743019
10
-209.30000466406347
20
-29.18320038743019
10
-209.30000466406347
20
-33.733200387430188
10
-204.75000466406351
20
-33.733200387430188
0
LWPOLYLINE
5
130
100
AcDbEntity
8
0
100
AcDbPolyline
90
4
70
1
43
0.0
10
-280.95000466406356
20
-33.733200387430188
10
-276.40000466406354
20
-33.733200387430188
10
-276.40000466406354
20
-29.18320038743019
10
-280.95000466406356
20
-29.18320038743019
0
LWPOLYLINE
5
131
100
AcDbEntity
8
0
100
AcDbPolyline
90
4
70
1
43
0.0
10
-204.76100466406351
20
-368.78720038743018
10
-204.76100466406351
20
-364.23720038743022
10
-209.31100466406349
20
-364.23720038743022
10
-209.31100466406349
20
-368.78720038743018
0
LWPOLYLINE
5
132
100
AcDbEntity
8
0
100
AcDbPolyline
90
4
70
1
43
0.0
10
-276.41100466406351
20
-364.23720038743022
10
-280.96100466406347
20
-364.23720038743022
10
-280.96100466406347
20
-368.78720038743018
10
-276.41100466406351
20
-368.78720038743018
0
LWPOLYLINE
5
133
100
AcDbEntity
8
0
100
AcDbPolyline
90
4
70
1
43
0.0
10
206.00685894515891
20
147.33821958248515
10
206.00685894515891
20
140.33821958248515
10
221.00685894515891
20
140.33821958248515
10
221.00685894515891
20
147.33821958248515
0
LWPOLYLINE
5
134
100
AcDbEntity
8
0
100
AcDbPolyline
90
4
70
1
43
0.0
10
234.50685894515891
20
140.33821958248515
10
249.50685894515891
20
140.33821958248515
10
249.50685894515891
20
147.33821958248515
10
234.50685894515891
20
147.33821958248515
0
LWPOLYLINE
5
135
100
AcDbEntity
8
0
100
AcDbPolyline
90
4
70
1
43
0.0
10
177.50685894515894
20
140.33821958248515
10
192.50685894515894
20
140.33821958248515
10
192.50685894515894
20
147.33821958248515
10
177.50685894515894
20
147.33821958248515
0
LWPOLYLINE
5
136
100
AcDbEntity
8
0
100
AcDbPolyline
90
4
70
1
43
0.0
10
96.963670618254909
20
146.23575904347359
10
69.463670618254909
20
146.23575904347359
10
69.463670618254909
20
127.23575904347358
10
96.963670618254909
20
127.23575904347358
0
LWPOLYLINE
5
137
100
AcDbEntity
8
0
100
AcDbPolyline
90
4
70
1
43
0.0
10
-299.23286799124207
20
118.63535215379137
10
-248.23286799124213
20
118.63535215379137
10
-248.23286799124213
20
128.63535215379136
10
-299.23286799124207
20
128.63535215379136
0
CIRCLE
5
138
100
AcDbEntity
8
0
100
AcDbCircle
10
130
20
105
30
0
40
6.25
0
LWPOLYLINE
5
139
100
AcDbEntity
8
0
100
AcDbPolyline
90
4
70
1
43
0.0
10
-207.31100466406349
20
-222.77730113957057
10
-233.84431228177533
20
-222.77730113957057
10
-233.84431228177533
20
-310.43849765534554
10
-207.31100466406349
20
-310.43849765534554
0
LWPOLYLINE
5
140
100
AcDbEntity
8
0
100
AcDbPolyline
90
4
70
1
43
0.0
10
-150.64718999999999
20
-25
10
-175
20
-25
10
-175
20
-369
10
-150.64718999999999
20
-369
0
LWPOLYLINE
5
141
100
AcDbEntity
8
0
100
AcDbPolyline
90
4
70
1
43
0.0
10
-67.921986992573324
20
-279.33494369309574
10
-67.921986992573309
20
-261.0073243099975
10
-61.169070640190043
20
-261.0073243099975
10
-61.169070640190043
20
-279.33494369309574
0
LWPOLYLINE
5
142
100
AcDbEntity
8
0
100
AcDbPolyline
90
4
70
1
43
0.0
10
-67.042331872041871
20
-251.48180694673653
10
-67.042331872041871
20
-228.38520151714425
10
-60.898099153559457
20
-228.38520151714425
10
-60.898099153559443
20
-251.48180694673653
0
LWPOLYLINE
5
143
100
AcDbEntity
8
0
100
AcDbPolyline
90
4
70
1
43
0.0
10
-67.759003915579697
20
-309.49290315823544
10
-67.759003915579683
20
-288.89077704407396
10
-60.597856981410068
20
-288.89077704407396
10
-60.597856981410075
20
-309.49290315823544
0
LWPOLYLINE
5
144
100
AcDbEntity
8
0
100
AcDbPolyline
90
7
70
1
43
0.0
10
-115.55780229152941
20
226.72236970233183
10
-115.24246282572797
20
306.72236970233183
10
-184.08051240614685
20
306.72236970233183
10
-184.08051240614637
20
96.722369702331662
10
-184.08051240614566
20
11.651956702331958
10
-159.72770240614565
20
11.823435000153797
10
-142.59040308321786
20
95.201195842109854
0
LWPOLYLINE
5
145
100
AcDbEntity
8
0
100
AcDbPolyline
90
4
70
1
43
0.0
10
-157.86365016530158
20
251.86079464240837
10
-157.86365016530158
20
298.13068825091653
10
-162.86365016530158
20
298.13068825091653
10
-162.86365016530158
20
251.86079464240837
0
LWPOLYLINE
5
146
100
AcDbEntity
8
0
100
AcDbPolyline
90
4
70
1
43
0.0
10
-147.86365016530158
20
251.86079464240837
10
-147.86365016530158
20
298.13068825091653
10
-152.86365016530158
20
298.13068825091653
10
-152.86365016530158
20
251.86079464240837
0
LWPOLYLINE
5
147
100
AcDbEntity
8
0
100
AcDbPolyline
90
4
70
1
43
0.0
10
-158.36214220052258
20
243.51203381756596
10
-158.36214220052258
20
213.01203381756596
10
-147.46214220052263
20
213.01203381756596
10
-147.46214220052258
20
243.51203381756596
0
LWPOLYLINE
5
148
100
AcDbEntity
8
0
100
AcDbPolyline
90
4
70
1
43
0.0
10
-137.86365016530158
20
298.13068825091653
10
-142.86365016530158
20
298.13068825091653
10
-142.86365016530158
20
251.86079464240837
10
-137.86365016530158
20
251.86079464240837
0
LWPOLYLINE
5
149
100
AcDbEntity
8
0
100
AcDbPolyline
90
4
70
1
43
0.0
10
137.09896722327449
20
143.36861526917403
10
137.09896728073758
20
126.36861526917401
10
113.59896728073761
20
126.3686152475407
10
113.67743700801387
20
143.54824465136576
0
LINE
5
150
100
AcDbEntity
8
0
100
AcDbLine
10
113.67743700801387
20
143.54824465136576
30
0
11
113.61844522544844
21
130.6329842379202
31
0
0
LWPOLYLINE
5
151
100
AcDbEntity
8
0
100
AcDbPolyline
90
4
70
1
43
0.0
10
-299.23286799124207
20
133.63535215379136
10
-248.23286799124213
20
133.63535215379136
10
-248.23286799124213
20
143.63535215379136
10
-299.23286799124207
20
143.63535215379136
0
LWPOLYLINE
5
152
100
AcDbEntity
8
0
100
AcDbPolyline
90
4
70
1
43
0.0
10
93.098967223274499
20
113.36861526917403
10
93.098967280737583
20
96.368615269174015
10
69.598967280737597
20
96.368615247540703
10
69.677437008013868
20
113.54824465136575
0
LINE
5
153
100
AcDbEntity
8
0
100
AcDbLine
10
69.677437008013868
20
113.54824465136575
30
0
11
69.61844522544844
21
100.6329842379202
31
0
0
LWPOLYLINE
5
154
100
AcDbEntity
8
0
100
AcDbPolyline
90
7
70
1
43
0.0
10
-310
20
-25
10
-330
20
-25
10
-330
20
-369
10
-310
20
-369
10
-310
20
-40
10
-300
20
-40
10
-300
20
-25
0
LWPOLYLINE
5
155
100
AcDbEntity
8
0
100
AcDbPolyline
90
4
70
1
43
0.0
10
-82.863650165301564
20
51.860794642408372
10
-87.863650165301564
20
51.860794642408372
10
-87.863650165301564
20
5.5909010339001952
10
-82.863650165301564
20
5.5909010339001952
0
LWPOLYLINE
5
156
100
AcDbEntity
8
0
100
AcDbPolyline
90
7
70
1
43
0.0
10
-103.13689724738532
20
208.52039344270693
10
-130.16949803907374
20
76.999219582484926
10
-130.48483750487517
20
-3.000780417515081
10
-61.646787924456291
20
-3.000780417515081
10
-61.64678792445681
20
206.9992195824851
10
-61.646787924457541
20
292.06963258248481
10
-85.999597924457532
20
291.89815428466295
0
LWPOLYLINE
5
157
100
AcDbEntity
8
0
100
AcDbPolyline
90
4
70
1
43
0.0
10
-102.86365016530156
20
51.860794642408372
10
-107.86365016530156
20
51.860794642408372
10
-107.86365016530156
20
5.5909010339001952
10
-102.86365016530156
20
5.5909010339001952
0
LWPOLYLINE
5
158
100
AcDbEntity
8
0
100
AcDbPolyline
90
4
70
1
43
0.0
10
-92.863650165301564
20
51.860794642408372
10
-97.863650165301564
20
51.860794642408372
10
-97.863650165301564
20
5.5909010339001952
10
-92.863650165301564
20
5.5909010339001952
0
ENDSEC
0
SECTION
2
OBJECTS
0
DICTIONARY
5
C
100
AcDbDictionary
3
ACAD_GROUP
350
D
3
ACAD_MLINESTYLE
350
17
0
DICTIONARY
5
D
100
AcDbDictionary
0
DICTIONARY
5
1A
330
C
100
AcDbDictionary
0
DICTIONARY
5
17
100
AcDbDictionary
0
ENDSEC
0
EOF
